# xmcd
#
# Track frame offsets:
#	150
#	7954
#	18395
#	28814
#	34506
#	42745
#	53494
#	63280
#	72367
#	80594
#	90161
#	103280
#	113615
#	122487
#	135372
#	143016
#	156093
#	162291
#	171687
#	180679
#	191449
#	201097
#	209059
#	217564
#	226339
#	235951
#	244285
#	254851
#	264335
#	272681
#	284595
#
# Disc length: 3908 seconds
#
# Revision: 0
# Processed by: cddbd v1.5.2PL0 Copyright (c) Steve Scherf et al.
# Submitted via: audiograbber 1.83.01
#
DISCID=bb0f421f
DTITLE=Johnny Horton - The Early Years - CD3
DYEAR=1998
DGENRE=Country
TTITLE0=Won't You Love Me, Love, Love Me
TTITLE1=Why Did It Happen To Me
TTITLE2=You, You, You (Caused This Heartache)
TTITLE3=Broken Hearted Gypsy
TTITLE4=All For The Love Of A Girl
TTITLE5=My Heart Stopped, Trembled And Died
TTITLE6=I'm A Fishin' Man
TTITLE7=Where Do You Think You Would Stand
TTITLE8=The Devil Made A Masterpiece
TTITLE9=Because I'm A Jealous Man
TTITLE10=I'm The One That Breaks In Two
TTITLE11=The Train With The Rhumba Beat
TTITLE12='Cause You're The One For Me
TTITLE13=None Of You But All Of Me
TTITLE14=Dark Haired Beauty From Cuba
TTITLE15=Honky Tonk Jelly Roll Blues  [with band]
TTITLE16=Love And Tell
TTITLE17=I Wish Heartaches Were Strangers
TTITLE18=Confusion  [version 1]
TTITLE19=Shadows On The Bayou
TTITLE20=Somebody's Rockin' My Broken Heart  [duet]
TTITLE21=Talk Gobbler Talk
TTITLE22=Two Eyed Sunday Pants
TTITLE23=Down That River Road
TTITLE24=Egg Money
TTITLE25=Confusion  [version 2]
TTITLE26=First Train Headin' South
TTITLE27=Somebody's Rockin' My Broken Heart  [version 1]
TTITLE28=Smokey Joe's Barbecue
TTITLE29=Betty Lorraine
TTITLE30=Honky Tonk Jelly Roll Blues  [version 1]
EXTD=
EXTT0=
EXTT1=
EXTT2=
EXTT3=
EXTT4=
EXTT5=
EXTT6=
EXTT7=
EXTT8=
EXTT9=
EXTT10=
EXTT11=
EXTT12=
EXTT13=
EXTT14=
EXTT15=
EXTT16=
EXTT17=
EXTT18=
EXTT19=
EXTT20=
EXTT21=
EXTT22=
EXTT23=
EXTT24=
EXTT25=
EXTT26=
EXTT27=
EXTT28=
EXTT29=
EXTT30=
PLAYORDER=
